<svg width="168" height="29" viewBox="0 0 168 29" fill="none" xmlns="http://www.w3.org/2000/svg">
<path d="M13.3471 22.976C13.3471 22.3573 13.1018 21.76 12.6111 21.184C12.1205 20.608 11.5125 20.0747 10.7871 19.584C10.0618 19.0933 9.05913 18.4747 7.77913 17.728C6.20046 16.8107 4.93113 16.0213 3.97113 15.36C3.01113 14.6773 2.18979 13.888 1.50713 12.992C0.824458 12.096 0.483125 11.104 0.483125 10.016C0.483125 8.94933 0.995125 7.808 2.01913 6.592C3.06446 5.35467 4.33379 4.32 5.82713 3.488C7.32046 2.63467 8.69646 2.208 9.95513 2.208C11.4698 2.208 13.2298 2.368 15.2351 2.688C17.2618 3.008 18.7445 3.34933 19.6831 3.712V11.2H15.5871C14.7978 9.49333 13.9018 8.16 12.8991 7.2C11.9178 6.21867 10.8938 5.728 9.82713 5.728C9.18713 5.728 8.68579 5.93067 8.32313 6.336C7.96046 6.74133 7.77913 7.264 7.77913 7.904C7.77913 8.58667 8.02446 9.23733 8.51513 9.856C9.02713 10.4533 9.65646 11.008 10.4031 11.52C11.1711 12.0107 12.2058 12.6293 13.5071 13.376C15.0431 14.2507 16.2805 15.0187 17.2191 15.68C18.1791 16.32 18.9898 17.0773 19.6511 17.952C20.3125 18.8267 20.6431 19.7973 20.6431 20.864C20.6431 21.9307 20.0885 23.0827 18.9791 24.32C17.8911 25.536 16.5578 26.5707 14.9791 27.424C13.4005 28.256 11.9605 28.672 10.6591 28.672C9.08046 28.672 7.20313 28.512 5.02713 28.192C2.85113 27.872 1.28313 27.5307 0.323125 27.168V19.68H4.41913C5.27246 21.408 6.26446 22.752 7.39513 23.712C8.52579 24.672 9.66713 25.152 10.8191 25.152C11.5871 25.152 12.1951 24.9387 12.6431 24.512C13.1125 24.0853 13.3471 23.5733 13.3471 22.976ZM33.4814 10.304C34.548 10.304 35.796 10.432 37.2254 10.688C38.6547 10.9227 39.6894 11.1893 40.3294 11.488V18.016H37.8334C37.044 16.928 36.148 16.0853 35.1454 15.488C34.164 14.8907 33.1294 14.592 32.0414 14.592C31.4014 14.592 30.8894 14.9227 30.5054 15.584C30.1214 16.224 29.9294 17.1413 29.9294 18.336C29.9294 19.872 30.2494 21.152 30.8894 22.176C31.5507 23.1787 32.4894 23.68 33.7054 23.68C35.156 23.68 37.3107 23.1253 40.1694 22.016L41.1294 24.192L36.7454 27.712C35.38 28.1173 33.748 28.32 31.8494 28.32C30.1854 28.32 28.692 27.9573 27.3694 27.232C26.068 26.4853 25.044 25.472 24.2974 24.192C23.572 22.8907 23.2094 21.4507 23.2094 19.872C23.2094 18.1653 23.7427 16.576 24.8094 15.104C25.876 13.632 27.2094 12.4693 28.8094 11.616C30.4307 10.7413 31.988 10.304 33.4814 10.304ZM64.7236 27.968H56.7236V18.08C56.7236 17.1627 56.585 16.512 56.3076 16.128C56.0516 15.744 55.593 15.552 54.9316 15.552C54.0143 15.552 53.1183 15.776 52.2436 16.224V24.544L55.1236 25.44L53.8436 28H42.9956V25.728L45.8436 23.232V7.04L42.9956 5.184V2.912L49.7476 0.0639992H52.2436V13.056L55.3476 10.56C55.9236 10.3893 56.617 10.304 57.4276 10.304C59.177 10.304 60.5636 10.752 61.5876 11.648C62.6116 12.5227 63.1236 13.7173 63.1236 15.232V24.544L66.0036 25.408L64.7236 27.968ZM78.3394 10.304C80.7074 10.304 82.542 11.1893 83.8434 12.96C85.1447 14.7307 85.7634 17.248 85.6994 20.512H74.4034C74.6594 21.4933 75.086 22.272 75.6834 22.848C76.2807 23.4027 77.038 23.68 77.9554 23.68C79.47 23.68 81.7314 23.1253 84.7394 22.016L85.6994 24.192L81.3154 27.712C79.8647 28.1173 78.126 28.32 76.0994 28.32C74.4354 28.32 72.942 27.9573 71.6194 27.232C70.318 26.4853 69.294 25.472 68.5474 24.192C67.822 22.8907 67.4594 21.4507 67.4594 19.872C67.4594 18.1653 68.0247 16.576 69.1554 15.104C70.286 13.632 71.7047 12.4693 73.4114 11.616C75.118 10.7413 76.7714 10.304 78.3714 10.304H78.3394ZM76.6434 14.592C75.854 14.592 75.2567 14.8693 74.8514 15.424C74.446 15.9573 74.222 16.7893 74.1794 17.92H79.4594C79.3527 16.7893 79.0754 15.9573 78.6274 15.424C78.1794 14.8693 77.5074 14.592 76.6114 14.592H76.6434ZM109.728 28H101.728V25.568L98.6241 28.064C97.9415 28.2347 97.1628 28.32 96.2881 28.32C94.8801 28.32 93.6108 27.9573 92.4801 27.232C91.3708 26.4853 90.4961 25.472 89.8561 24.192C89.2375 22.8907 88.9281 21.4507 88.9281 19.872C88.9281 18.1653 89.4935 16.576 90.6241 15.104C91.7548 13.632 93.1735 12.4693 94.8801 11.616C96.5868 10.7413 98.2401 10.304 99.8401 10.304C100.501 10.304 101.131 10.4533 101.728 10.752V7.04L98.8801 5.184V2.912L105.632 0.0639992H108.128V24.544L111.008 25.44L109.728 28ZM98.4961 23.072C99.6481 23.072 100.736 22.8373 101.76 22.368V16.992C101.632 16.288 101.248 15.712 100.608 15.264C99.9681 14.816 99.0935 14.592 97.9841 14.592C96.4268 14.592 95.6481 15.8507 95.6481 18.368C95.6481 19.7547 95.8828 20.8853 96.3521 21.76C96.8215 22.6347 97.5255 23.072 98.4641 23.072H98.4961ZM133.092 28H125.092V25.6L121.988 28.096C121.412 28.2667 120.719 28.352 119.908 28.352C118.159 28.352 116.772 27.9147 115.748 27.04C114.724 26.144 114.212 24.9387 114.212 23.424V17.056L111.364 15.424V13.152L118.116 10.304H120.612V20.544C120.612 21.4613 120.74 22.112 120.996 22.496C121.273 22.88 121.743 23.072 122.404 23.072C123.321 23.072 124.217 22.848 125.092 22.4V17.056L122.244 15.424V13.152L128.996 10.304H131.492V24.544L134.372 25.44L133.092 28ZM145.875 28H135.027V25.728L137.875 23.232V7.04L135.027 5.184V2.912L141.779 0.0639992H144.275V24.544L147.155 25.44L145.875 28ZM159.808 10.304C162.176 10.304 164.011 11.1893 165.312 12.96C166.613 14.7307 167.232 17.248 167.168 20.512H155.872C156.128 21.4933 156.555 22.272 157.152 22.848C157.749 23.4027 158.507 23.68 159.424 23.68C160.939 23.68 163.2 23.1253 166.208 22.016L167.168 24.192L162.784 27.712C161.333 28.1173 159.595 28.32 157.568 28.32C155.904 28.32 154.411 27.9573 153.088 27.232C151.787 26.4853 150.763 25.472 150.016 24.192C149.291 22.8907 148.928 21.4507 148.928 19.872C148.928 18.1653 149.493 16.576 150.624 15.104C151.755 13.632 153.173 12.4693 154.88 11.616C156.587 10.7413 158.24 10.304 159.84 10.304H159.808ZM158.112 14.592C157.323 14.592 156.725 14.8693 156.32 15.424C155.915 15.9573 155.691 16.7893 155.648 17.92H160.928C160.821 16.7893 160.544 15.9573 160.096 15.424C159.648 14.8693 158.976 14.592 158.08 14.592H158.112Z" fill="black"/>
</svg>
